<svg xmlns="http://www.w3.org/2000/svg" width="1120" height="420" viewBox="0 0 1120 420" role="img"><rect width="100%" height="100%" fill="#ffffff"/>
<text x="30" y="30" font-size="18" font-weight="700">Local-first Relaytic agent architecture</text>
<text x="30" y="52" font-size="12" fill="#5b6472">The workspace is the authority: specialist roles produce local artifacts, optional LLM help is redacted, and claim gates fail closed.</text>
<rect x="30" y="76" width="1060" height="294" rx="8" fill="#fbfcfe" stroke="#8d99ae" stroke-width="1.2"/>
<text x="50" y="102" font-size="13" font-weight="700" fill="#293241">Controlled local workspace: files, traces, models, policies, evidence, and release state stay under the user boundary.</text>
<line x1="50" y1="118" x2="1070" y2="118" stroke="#d7dde8" stroke-width="1"/>
<rect x="60" y="142" width="145" height="70" rx="6" fill="#edf6f9" stroke="#293241" stroke-width="1.1"/>
<text x="132.0" y="171.0" text-anchor="middle" font-size="12" fill="#293241">Operator /</text>
<text x="132.0" y="186.0" text-anchor="middle" font-size="12" fill="#293241">mandate</text>
<rect x="230" y="142" width="145" height="70" rx="6" fill="#edf6f9" stroke="#293241" stroke-width="1.1"/>
<text x="302.0" y="171.0" text-anchor="middle" font-size="12" fill="#293241">Guide +</text>
<text x="302.0" y="186.0" text-anchor="middle" font-size="12" fill="#293241">assist</text>
<rect x="400" y="142" width="145" height="70" rx="6" fill="#f7f4ea" stroke="#293241" stroke-width="1.1"/>
<text x="472.0" y="171.0" text-anchor="middle" font-size="12" fill="#293241">Scout +</text>
<text x="472.0" y="186.0" text-anchor="middle" font-size="12" fill="#293241">task contracts</text>
<rect x="570" y="142" width="145" height="70" rx="6" fill="#f7f4ea" stroke="#293241" stroke-width="1.1"/>
<text x="642.0" y="171.0" text-anchor="middle" font-size="12" fill="#293241">Scientist +</text>
<text x="642.0" y="186.0" text-anchor="middle" font-size="12" fill="#293241">challengers</text>
<rect x="740" y="142" width="145" height="70" rx="6" fill="#eef4ff" stroke="#293241" stroke-width="1.1"/>
<text x="812.0" y="171.0" text-anchor="middle" font-size="12" fill="#293241">Builder +</text>
<text x="812.0" y="186.0" text-anchor="middle" font-size="12" fill="#293241">search</text>
<rect x="910" y="142" width="145" height="70" rx="6" fill="#fdeeee" stroke="#293241" stroke-width="1.1"/>
<text x="982.0" y="171.0" text-anchor="middle" font-size="12" fill="#293241">Claim/release</text>
<text x="982.0" y="186.0" text-anchor="middle" font-size="12" fill="#293241">governors</text>
<rect x="60" y="258" width="145" height="66" rx="6" fill="#ffffff" stroke="#8d99ae" stroke-width="1.0"/>
<text x="132.0" y="284.0" text-anchor="middle" font-size="11" fill="#293241">Policy +</text>
<text x="132.0" y="298.0" text-anchor="middle" font-size="11" fill="#293241">permissions</text>
<rect x="230" y="258" width="145" height="66" rx="6" fill="#ffffff" stroke="#8d99ae" stroke-width="1.0"/>
<text x="302.0" y="284.0" text-anchor="middle" font-size="11" fill="#293241">Status +</text>
<text x="302.0" y="298.0" text-anchor="middle" font-size="11" fill="#293241">context packs</text>
<rect x="400" y="258" width="145" height="66" rx="6" fill="#ffffff" stroke="#8d99ae" stroke-width="1.0"/>
<text x="472.0" y="284.0" text-anchor="middle" font-size="11" fill="#293241">Source/split</text>
<text x="472.0" y="298.0" text-anchor="middle" font-size="11" fill="#293241">contracts</text>
<rect x="570" y="258" width="145" height="66" rx="6" fill="#ffffff" stroke="#8d99ae" stroke-width="1.0"/>
<text x="642.0" y="284.0" text-anchor="middle" font-size="11" fill="#293241">Scorecards +</text>
<text x="642.0" y="298.0" text-anchor="middle" font-size="11" fill="#293241">ablations</text>
<rect x="740" y="258" width="145" height="66" rx="6" fill="#ffffff" stroke="#8d99ae" stroke-width="1.0"/>
<text x="812.0" y="284.0" text-anchor="middle" font-size="11" fill="#293241">Run/model</text>
<text x="812.0" y="298.0" text-anchor="middle" font-size="11" fill="#293241">artifacts</text>
<rect x="910" y="258" width="145" height="66" rx="6" fill="#ffffff" stroke="#8d99ae" stroke-width="1.0"/>
<text x="982.0" y="284.0" text-anchor="middle" font-size="11" fill="#293241">Claim lint +</text>
<text x="982.0" y="298.0" text-anchor="middle" font-size="11" fill="#293241">source audit</text>
<line x1="132" y1="212" x2="132" y2="258" stroke="#293241" stroke-width="1.2"/>
<polygon points="132,258 127,250 137,250" fill="#293241"/>
<line x1="302" y1="212" x2="302" y2="258" stroke="#293241" stroke-width="1.2"/>
<polygon points="302,258 297,250 307,250" fill="#293241"/>
<line x1="472" y1="212" x2="472" y2="258" stroke="#293241" stroke-width="1.2"/>
<polygon points="472,258 467,250 477,250" fill="#293241"/>
<line x1="642" y1="212" x2="642" y2="258" stroke="#293241" stroke-width="1.2"/>
<polygon points="642,258 637,250 647,250" fill="#293241"/>
<line x1="812" y1="212" x2="812" y2="258" stroke="#293241" stroke-width="1.2"/>
<polygon points="812,258 807,250 817,250" fill="#293241"/>
<line x1="982" y1="212" x2="982" y2="258" stroke="#293241" stroke-width="1.2"/>
<polygon points="982,258 977,250 987,250" fill="#293241"/>
<line x1="205" y1="177" x2="230" y2="177" stroke="#293241" stroke-width="1.2"/>
<polygon points="230,177 222,172 222,182" fill="#293241"/>
<line x1="375" y1="177" x2="400" y2="177" stroke="#293241" stroke-width="1.2"/>
<polygon points="400,177 392,172 392,182" fill="#293241"/>
<line x1="545" y1="177" x2="570" y2="177" stroke="#293241" stroke-width="1.2"/>
<polygon points="570,177 562,172 562,182" fill="#293241"/>
<line x1="715" y1="177" x2="740" y2="177" stroke="#293241" stroke-width="1.2"/>
<polygon points="740,177 732,172 732,182" fill="#293241"/>
<line x1="885" y1="177" x2="910" y2="177" stroke="#293241" stroke-width="1.2"/>
<polygon points="910,177 902,172 902,182" fill="#293241"/>
<rect x="60" y="342" width="380" height="18" rx="4" fill="#eef4ff" stroke="#8d99ae" stroke-width="0.8"/>
<text x="250" y="355" text-anchor="middle" font-size="10" fill="#293241">Artifact graph is canonical: JSON, Markdown, TeX, figures, model files, traces</text>
<rect x="484" y="342" width="280" height="18" rx="4" fill="#edf6f9" stroke="#8d99ae" stroke-width="0.8"/>
<text x="624" y="355" text-anchor="middle" font-size="10" fill="#293241">External handoff is rowless/redacted by default</text>
<rect x="808" y="342" width="232" height="18" rx="4" fill="#fdeeee" stroke="#8d99ae" stroke-width="0.8"/>
<text x="924" y="355" text-anchor="middle" font-size="10" fill="#293241">Public claims fail closed until gates pass</text>
<text x="30" y="398" font-size="12" fill="#5b6472">Benchmarks exercise this architecture; they do not replace the local-first role, artifact, and claim-control thesis.</text>
</svg>