<svg xmlns="http://www.w3.org/2000/svg" width="1080" height="440" viewBox="0 0 1080 440" role="img"><style>text{font-family:Arial,Helvetica,sans-serif;letter-spacing:0}</style><rect width="100%" height="100%" fill="#ffffff"/>
<rect x="28" y="24" width="1024" height="376" rx="8" fill="#fbfcfe" stroke="#cfd7e3" stroke-width="1.4"/>
<text x="54" y="58" font-size="22" font-weight="700" fill="#293241">Review-budget operating points</text>
<text x="54" y="86" font-size="15" fill="#5b6472">Operational evidence separates top-queue precision from total fraud coverage.</text>
<text x="292" y="108" font-size="13" font-weight="700" fill="#293241">score</text>
<text x="854" y="108" font-size="13" font-weight="700" fill="#293241">claim posture</text>
<line x1="292.0" y1="112" x2="292.0" y2="336" stroke="#e3e8f0" stroke-width="0.9"/>
<text x="292.0" y="366" text-anchor="middle" font-size="11" fill="#5b6472">0</text>
<line x1="409.5" y1="112" x2="409.5" y2="336" stroke="#e3e8f0" stroke-width="0.9"/>
<text x="409.5" y="366" text-anchor="middle" font-size="11" fill="#5b6472">0.25</text>
<line x1="527.0" y1="112" x2="527.0" y2="336" stroke="#e3e8f0" stroke-width="0.9"/>
<text x="527.0" y="366" text-anchor="middle" font-size="11" fill="#5b6472">0.5</text>
<line x1="644.5" y1="112" x2="644.5" y2="336" stroke="#e3e8f0" stroke-width="0.9"/>
<text x="644.5" y="366" text-anchor="middle" font-size="11" fill="#5b6472">0.75</text>
<line x1="762.0" y1="112" x2="762.0" y2="336" stroke="#e3e8f0" stroke-width="0.9"/>
<text x="762.0" y="366" text-anchor="middle" font-size="11" fill="#5b6472">1</text>
<text x="54" y="137" font-size="15" font-weight="700" fill="#293241">PaySim precision</text>
<text x="54" y="156" font-size="12" fill="#5b6472">top review queue</text>
<rect x="292" y="128" width="470" height="20" rx="5" fill="#edf1f6" stroke="#d8dee8" stroke-width="0.8"/>
<rect x="292" y="128" width="330.6" height="20" rx="5" fill="#2a9d8f"/>
<text x="780" y="143" font-size="13" fill="#293241">0.703336</text>
<rect x="838" y="124" width="190" height="28" rx="7" fill="#eaf7f3" stroke="#d7dde8" stroke-width="0.9"/>
<text x="933" y="143" text-anchor="middle" font-size="12" fill="#293241">queue quality</text>
<text x="54" y="195" font-size="15" font-weight="700" fill="#293241">PaySim recall</text>
<text x="54" y="214" font-size="12" fill="#5b6472">fraud coverage</text>
<rect x="292" y="186" width="470" height="20" rx="5" fill="#edf1f6" stroke="#d8dee8" stroke-width="0.8"/>
<rect x="292" y="186" width="221.6" height="20" rx="5" fill="#6f9f18"/>
<text x="780" y="201" font-size="13" fill="#293241">0.471584</text>
<rect x="838" y="182" width="190" height="28" rx="7" fill="#f1f8e6" stroke="#d7dde8" stroke-width="0.9"/>
<text x="933" y="201" text-anchor="middle" font-size="12" fill="#293241">incomplete</text>
<text x="54" y="253" font-size="15" font-weight="700" fill="#293241">Elliptic precision</text>
<text x="54" y="272" font-size="12" fill="#5b6472">top review queue</text>
<rect x="292" y="244" width="470" height="20" rx="5" fill="#edf1f6" stroke="#d8dee8" stroke-width="0.8"/>
<rect x="292" y="244" width="470.0" height="20" rx="5" fill="#457b9d"/>
<text x="780" y="259" font-size="13" fill="#293241">1</text>
<rect x="838" y="240" width="190" height="28" rx="7" fill="#edf4f8" stroke="#d7dde8" stroke-width="0.9"/>
<text x="933" y="259" text-anchor="middle" font-size="12" fill="#293241">queue quality</text>
<text x="54" y="311" font-size="15" font-weight="700" fill="#293241">Elliptic recall</text>
<text x="54" y="330" font-size="12" fill="#5b6472">fraud coverage</text>
<rect x="292" y="302" width="470" height="20" rx="5" fill="#edf1f6" stroke="#d8dee8" stroke-width="0.8"/>
<rect x="292" y="302" width="26.6" height="20" rx="5" fill="#f4a261"/>
<text x="780" y="317" font-size="13" fill="#293241">0.056604</text>
<rect x="838" y="298" width="190" height="28" rx="7" fill="#fff4e8" stroke="#d7dde8" stroke-width="0.9"/>
<text x="933" y="317" text-anchor="middle" font-size="12" fill="#293241">very narrow</text>
<text x="54" y="394" font-size="13" fill="#5b6472">High precision can still leave substantial recall outside the reviewed queue.</text>
</svg>