<svg xmlns="http://www.w3.org/2000/svg" width="940" height="390" viewBox="0 0 940 390" role="img"><rect width="100%" height="100%" fill="#ffffff"/>
<text x="30" y="28" font-size="18" font-weight="700">Supporting PR-AUC rows and frontier reference context</text>
<line x1="76" y1="297" x2="894" y2="297" stroke="#293241" stroke-width="1.2"/>
<line x1="76" y1="62" x2="76" y2="297" stroke="#293241" stroke-width="1.2"/>
<text x="20" y="80" font-size="12">PR-AUC</text>
<line x1="76" y1="62" x2="894" y2="62" stroke="#d7dde8" stroke-width="0.8"/>
<line x1="76" y1="179.5" x2="894" y2="179.5" stroke="#e4e8f0" stroke-width="0.8"/>
<rect x="110.8" y="219.1" width="94" height="77.9" fill="#8d99ae"/>
<text x="157.8" y="213.1" text-anchor="middle" font-size="11">0.331345</text>
<text x="157.8" y="322.0" text-anchor="middle" font-size="10" fill="#293241">PaySim</text>
<text x="157.8" y="334.0" text-anchor="middle" font-size="10" fill="#293241">baseline</text>
<rect x="274.4" y="146.9" width="94" height="150.1" fill="#2a9d8f"/>
<text x="321.4" y="140.9" text-anchor="middle" font-size="11">0.638773</text>
<text x="321.4" y="322.0" text-anchor="middle" font-size="10" fill="#293241">PaySim</text>
<text x="321.4" y="334.0" text-anchor="middle" font-size="10" fill="#293241">competitive</text>
<rect x="438.0" y="139.8" width="94" height="157.2" fill="#457b9d"/>
<text x="485.0" y="133.8" text-anchor="middle" font-size="11">0.668756</text>
<text x="485.0" y="322.0" text-anchor="middle" font-size="10" fill="#293241">Elliptic</text>
<text x="485.0" y="334.0" text-anchor="middle" font-size="10" fill="#293241">graph</text>
<rect x="601.6" y="75.3" width="94" height="221.7" fill="#e9c46a"/>
<text x="648.6" y="69.3" text-anchor="middle" font-size="11">0.94324</text>
<text x="648.6" y="322.0" text-anchor="middle" font-size="10" fill="#293241">Elliptic2</text>
<text x="648.6" y="334.0" text-anchor="middle" font-size="10" fill="#293241">context</text>
<rect x="765.2" y="68.1" width="94" height="228.9" fill="#e76f51"/>
<text x="812.2" y="62.1" text-anchor="middle" font-size="11">0.974</text>
<text x="812.2" y="322.0" text-anchor="middle" font-size="10" fill="#293241">RevClassifyDS</text>
<text x="812.2" y="334.0" text-anchor="middle" font-size="10" fill="#293241">ref</text>
<text x="30" y="370" font-size="11" fill="#5b6472">Values come from fixed local evidence cells; the rows are supporting evidence, not headline claims.</text>
</svg>