<svg xmlns="http://www.w3.org/2000/svg" width="1040" height="190" viewBox="0 0 1040 190" role="img"><rect width="100%" height="100%" fill="#ffffff"/>
<text x="30" y="28" font-size="18" font-weight="700">Figure 1. Claim-gated evidence flow (schematic)</text>
<rect x="35" y="60" width="130" height="56" rx="5" fill="#f5f7fb" stroke="#293241" stroke-width="1.2"/>
<text x="100" y="93" text-anchor="middle" font-size="12">Dataset registry</text>
<rect x="190" y="60" width="130" height="56" rx="5" fill="#f5f7fb" stroke="#293241" stroke-width="1.2"/>
<text x="255" y="93" text-anchor="middle" font-size="12">Split contracts</text>
<rect x="345" y="60" width="130" height="56" rx="5" fill="#f5f7fb" stroke="#293241" stroke-width="1.2"/>
<text x="410" y="93" text-anchor="middle" font-size="12">Benchmark runners</text>
<rect x="500" y="60" width="130" height="56" rx="5" fill="#f5f7fb" stroke="#293241" stroke-width="1.2"/>
<text x="565" y="93" text-anchor="middle" font-size="12">Table provenance</text>
<rect x="655" y="60" width="130" height="56" rx="5" fill="#f5f7fb" stroke="#293241" stroke-width="1.2"/>
<text x="720" y="93" text-anchor="middle" font-size="12">Claim lint</text>
<rect x="810" y="60" width="130" height="56" rx="5" fill="#f5f7fb" stroke="#293241" stroke-width="1.2"/>
<text x="875" y="93" text-anchor="middle" font-size="12">Allowed / blocked claims</text>
<line x1="165" y1="88" x2="190" y2="88" stroke="#293241" stroke-width="1.4"/>
<polygon points="190,88 182,83 182,93" fill="#293241"/>
<line x1="320" y1="88" x2="345" y2="88" stroke="#293241" stroke-width="1.4"/>
<polygon points="345,88 337,83 337,93" fill="#293241"/>
<line x1="475" y1="88" x2="500" y2="88" stroke="#293241" stroke-width="1.4"/>
<polygon points="500,88 492,83 492,93" fill="#293241"/>
<line x1="630" y1="88" x2="655" y2="88" stroke="#293241" stroke-width="1.4"/>
<polygon points="655,88 647,83 647,93" fill="#293241"/>
<line x1="785" y1="88" x2="810" y2="88" stroke="#293241" stroke-width="1.4"/>
<polygon points="810,88 802,83 802,93" fill="#293241"/>
<text x="30" y="155" font-size="12" fill="#5b6472">Local artifacts remain the source of truth; unsupported benchmark tracks stay visible as blocked limitations.</text>
</svg>