<svg xmlns="http://www.w3.org/2000/svg" width="980" height="520" viewBox="0 0 980 520" role="img"><rect width="100%" height="100%" fill="#ffffff"/>
<text x="30" y="38" font-size="31" font-weight="700">Local-first Relaytic agent architecture</text>
<rect x="30" y="65" width="920" height="400" rx="10" fill="#fbfcfe" stroke="#8d99ae" stroke-width="1.7"/>
<text x="55" y="102" font-size="21" font-weight="700" fill="#293241">Workspace is the authority</text>
<text x="55" y="132" font-size="19" fill="#5b6472">Specialist roles create local artifacts. LLM help is optional, redacted, and never the source of truth.</text>
<line x1="55" y1="154" x2="925" y2="154" stroke="#d7dde8" stroke-width="1.4"/>
<rect x="55" y="180" width="120" height="78" rx="8" fill="#edf6f9" stroke="#293241" stroke-width="1.5"/>
<text x="115.0" y="227.0" text-anchor="middle" font-size="22" fill="#293241">Operator</text>
<rect x="205" y="180" width="120" height="78" rx="8" fill="#edf6f9" stroke="#293241" stroke-width="1.5"/>
<text x="265.0" y="227.0" text-anchor="middle" font-size="22" fill="#293241">Guide</text>
<rect x="355" y="180" width="120" height="78" rx="8" fill="#f7f4ea" stroke="#293241" stroke-width="1.5"/>
<text x="415.0" y="227.0" text-anchor="middle" font-size="22" fill="#293241">Scout</text>
<rect x="505" y="180" width="120" height="78" rx="8" fill="#f7f4ea" stroke="#293241" stroke-width="1.5"/>
<text x="565.0" y="227.0" text-anchor="middle" font-size="22" fill="#293241">Scientist</text>
<rect x="655" y="180" width="120" height="78" rx="8" fill="#eef4ff" stroke="#293241" stroke-width="1.5"/>
<text x="715.0" y="227.0" text-anchor="middle" font-size="22" fill="#293241">Builder</text>
<rect x="805" y="180" width="120" height="78" rx="8" fill="#fdeeee" stroke="#293241" stroke-width="1.5"/>
<text x="865.0" y="227.0" text-anchor="middle" font-size="22" fill="#293241">Claim Gate</text>
<rect x="55" y="298" width="120" height="68" rx="8" fill="#ffffff" stroke="#8d99ae" stroke-width="1.25"/>
<text x="115.0" y="339.0" text-anchor="middle" font-size="18" fill="#293241">Mandate</text>
<rect x="205" y="298" width="120" height="68" rx="8" fill="#ffffff" stroke="#8d99ae" stroke-width="1.25"/>
<text x="265.0" y="339.0" text-anchor="middle" font-size="18" fill="#293241">Run status</text>
<rect x="355" y="298" width="120" height="68" rx="8" fill="#ffffff" stroke="#8d99ae" stroke-width="1.25"/>
<text x="415.0" y="339.0" text-anchor="middle" font-size="18" fill="#293241">Split contract</text>
<rect x="505" y="298" width="120" height="68" rx="8" fill="#ffffff" stroke="#8d99ae" stroke-width="1.25"/>
<text x="565.0" y="339.0" text-anchor="middle" font-size="18" fill="#293241">Ablations</text>
<rect x="655" y="298" width="120" height="68" rx="8" fill="#ffffff" stroke="#8d99ae" stroke-width="1.25"/>
<text x="715.0" y="339.0" text-anchor="middle" font-size="18" fill="#293241">Model artifact</text>
<rect x="805" y="298" width="120" height="68" rx="8" fill="#ffffff" stroke="#8d99ae" stroke-width="1.25"/>
<text x="865.0" y="339.0" text-anchor="middle" font-size="18" fill="#293241">Public claims</text>
<line x1="115" y1="258" x2="115" y2="298" stroke="#293241" stroke-width="1.5"/>
<polygon points="115,298 108,287 122,287" fill="#293241"/>
<line x1="265" y1="258" x2="265" y2="298" stroke="#293241" stroke-width="1.5"/>
<polygon points="265,298 258,287 272,287" fill="#293241"/>
<line x1="415" y1="258" x2="415" y2="298" stroke="#293241" stroke-width="1.5"/>
<polygon points="415,298 408,287 422,287" fill="#293241"/>
<line x1="565" y1="258" x2="565" y2="298" stroke="#293241" stroke-width="1.5"/>
<polygon points="565,298 558,287 572,287" fill="#293241"/>
<line x1="715" y1="258" x2="715" y2="298" stroke="#293241" stroke-width="1.5"/>
<polygon points="715,298 708,287 722,287" fill="#293241"/>
<line x1="865" y1="258" x2="865" y2="298" stroke="#293241" stroke-width="1.5"/>
<polygon points="865,298 858,287 872,287" fill="#293241"/>
<line x1="175" y1="219" x2="205" y2="219" stroke="#293241" stroke-width="1.5"/>
<polygon points="205,219 195,212 195,226" fill="#293241"/>
<line x1="325" y1="219" x2="355" y2="219" stroke="#293241" stroke-width="1.5"/>
<polygon points="355,219 345,212 345,226" fill="#293241"/>
<line x1="475" y1="219" x2="505" y2="219" stroke="#293241" stroke-width="1.5"/>
<polygon points="505,219 495,212 495,226" fill="#293241"/>
<line x1="625" y1="219" x2="655" y2="219" stroke="#293241" stroke-width="1.5"/>
<polygon points="655,219 645,212 645,226" fill="#293241"/>
<line x1="775" y1="219" x2="805" y2="219" stroke="#293241" stroke-width="1.5"/>
<polygon points="805,219 795,212 795,226" fill="#293241"/>
<rect x="55" y="398" width="280" height="36" rx="6" fill="#eef4ff" stroke="#8d99ae" stroke-width="1.0"/>
<text x="195" y="422" text-anchor="middle" font-size="17" fill="#293241">Canonical artifact graph</text>
<rect x="350" y="398" width="280" height="36" rx="6" fill="#edf6f9" stroke="#8d99ae" stroke-width="1.0"/>
<text x="490" y="422" text-anchor="middle" font-size="17" fill="#293241">Rowless external handoff</text>
<rect x="645" y="398" width="280" height="36" rx="6" fill="#fdeeee" stroke="#8d99ae" stroke-width="1.0"/>
<text x="785" y="422" text-anchor="middle" font-size="17" fill="#293241">Claim gates fail closed</text>
<text x="30" y="498" font-size="18" fill="#5b6472">Benchmarks exercise this architecture; they do not replace the local-first artifact and claim-control thesis.</text>
</svg>